<svg width="29" height="26" viewBox="0 0 29 26" fill="none" xmlns="http://www.w3.org/2000/svg">
<path d="M19.0001 6.49991C18.1474 6.50264 17.2986 6.61609 16.4751 6.83741C16.1457 6.31058 15.7509 5.82758 15.3001 5.39991L16.4751 3.69991C16.5516 3.59358 16.6062 3.47308 16.6357 3.34544C16.6653 3.21779 16.6691 3.08555 16.647 2.95642C16.6249 2.82728 16.5773 2.70384 16.507 2.59327C16.4367 2.48271 16.3451 2.38723 16.2376 2.31241C16.1303 2.23555 16.0088 2.1807 15.8801 2.15103C15.7515 2.12136 15.6183 2.11745 15.4881 2.13953C15.358 2.16161 15.2335 2.20924 15.1218 2.27967C15.0102 2.35011 14.9136 2.44196 14.8376 2.54991L13.6501 4.24991C12.6111 3.71858 11.4539 3.46048 10.2876 3.49991L9.92509 1.46241C9.87868 1.20051 9.73013 0.967774 9.51212 0.8154C9.29411 0.663027 9.0245 0.603499 8.76259 0.649912C8.50069 0.696325 8.26796 0.844877 8.11558 1.06289C7.96321 1.2809 7.90368 1.55051 7.95009 1.81241L8.31259 3.84991C7.20192 4.21244 6.20033 4.84865 5.40009 5.69991L3.70009 4.51241C3.48269 4.36238 3.21475 4.30446 2.95479 4.3513C2.69483 4.39814 2.46396 4.54594 2.31259 4.76241C2.23606 4.86874 2.18145 4.98924 2.15194 5.11689C2.12243 5.24453 2.11862 5.37677 2.14072 5.50591C2.16283 5.63504 2.2104 5.75849 2.28069 5.86905C2.35097 5.97962 2.44255 6.07509 2.55009 6.14991L4.25009 7.33741C3.71721 8.38035 3.45908 9.54194 3.50009 10.7124L1.46259 11.0749C1.2125 11.1146 0.986754 11.2476 0.830925 11.4472C0.675096 11.6468 0.600787 11.8981 0.622997 12.1503C0.645207 12.4025 0.762282 12.637 0.950591 12.8062C1.1389 12.9755 1.38442 13.0671 1.63759 13.0624H1.81259L3.85009 12.6999C4.02674 13.2467 4.27471 13.7679 4.58759 14.2499C3.6294 15.1362 2.96084 16.291 2.66927 17.5632C2.37771 18.8355 2.47669 20.1661 2.95329 21.3813C3.42989 22.5964 4.26194 23.6395 5.34072 24.3743C6.4195 25.1091 7.69484 25.5014 9.00009 25.4999H19.0001C21.5196 25.4999 23.936 24.499 25.7176 22.7174C27.4992 20.9358 28.5001 18.5195 28.5001 15.9999C28.5001 13.4804 27.4992 11.064 25.7176 9.2824C23.936 7.5008 21.5196 6.49991 19.0001 6.49991ZM5.57509 11.3874V11.3374C5.34806 10.0492 5.64017 8.72344 6.38759 7.64991V7.62491H6.40009C7.15633 6.54804 8.30569 5.81172 9.60009 5.57491H9.66259C10.9314 5.35289 12.2367 5.63549 13.3001 6.36241L13.3626 6.39991L13.4126 6.43741C13.8657 6.7532 14.2593 7.14679 14.5751 7.59991C12.5385 8.67696 10.9586 10.4522 10.1251 12.5999C9.75356 12.5351 9.37724 12.5016 9.00009 12.4999C8.04572 12.5012 7.10306 12.7102 6.23759 13.1124C5.9115 12.5836 5.68684 11.9986 5.57509 11.3874Z" fill="#fff"/>
</svg>
