<?xml version="1.0" encoding="iso-8859-1"?>
<!-- Generator: Adobe Illustrator 25.2.0, SVG Export Plug-In . SVG Version: 6.00 Build 0)  -->
<svg version="1.1" id="Layer_1" xmlns="http://www.w3.org/2000/svg" xmlns:xlink="http://www.w3.org/1999/xlink" x="0px" y="0px"
	 width="160.875px" height="157.033px" viewBox="0 0 160.875 157.033" enable-background="new 0 0 160.875 157.033"
	 xml:space="preserve">
<g>
	<g>
		<path fill="#E83760" d="M26.285,58.674c-0.372,0-0.75-0.087-1.103-0.269c-1.187-0.61-1.653-2.066-1.042-3.252
			c8.811-17.122,24.655-29.161,43.467-33.032c1.305-0.273,2.583,0.572,2.852,1.878c0.269,1.307-0.572,2.583-1.878,2.852
			c-17.374,3.575-32.007,14.696-40.146,30.511C28.006,58.196,27.16,58.674,26.285,58.674z"/>
	</g>
	<g>
		<path fill="#E83760" d="M134.59,58.674c-0.875,0-1.721-0.478-2.149-1.311c-8.138-15.811-22.766-26.932-40.135-30.51
			c-1.307-0.269-2.148-1.546-1.878-2.852c0.269-1.307,1.545-2.148,2.852-1.878c18.808,3.873,34.646,15.912,43.456,33.03
			c0.61,1.186,0.144,2.642-1.042,3.252C135.34,58.587,134.962,58.674,134.59,58.674z"/>
	</g>
	<g>
		<path fill="#E83760" d="M80.438,147.16c-26.642,0-50.58-16.818-59.565-41.849c-0.451-1.256,0.201-2.639,1.457-3.089
			c1.257-0.453,2.638,0.201,3.089,1.457c8.3,23.118,30.411,38.651,55.02,38.651c24.623,0,46.737-15.544,55.03-38.68
			c0.451-1.256,1.832-1.907,3.089-1.459c1.256,0.45,1.909,1.833,1.459,3.089C131.036,130.33,107.094,147.16,80.438,147.16z"/>
	</g>
	<g opacity="0.08">
		<path fill="#FFFFFF" d="M80.438,139.665c30.807,0,55.78-24.937,55.78-55.698c0-30.76-24.973-55.697-55.78-55.697
			s-55.78,24.937-55.78,55.697C24.658,114.728,49.631,139.665,80.438,139.665"/>
	</g>
	<g>
		<path fill="#E83760" d="M141.278,91.069c-0.249,0-0.249-0.132-0.249-0.353c0-0.132,0.099-0.264,0.399-0.264
			c0.15,0,0.249,0,0.249,0.132C141.677,90.805,141.578,91.069,141.278,91.069 M142.376,91.731v-0.132
			c0-1.368,0.15-21.261,0.15-22.629c0.15-0.485,0.649-0.353,0.948-0.353c1.198,0,2.496,0.441,2.645,1.588
			c0.1,1.544,0.1,2.47,0.1,3.882c0,0.926,0,15.527-0.1,16.453c-0.299,1.279-1.297,1.764-2.795,1.764
			C142.925,92.304,142.376,92.172,142.376,91.731 M138.333,95.921h0.899c0.948,0,1.597,0,2.495-0.132l0.799,0.132l0.15-0.132
			c0.349,0,2.246-0.088,2.645-0.088c0.649,0,1.547-0.132,2.096-0.353c3.095-1.412,3.294-3.485,3.294-5.249
			c0-3.22,0.05-17.776,0.05-18.967c0-1.853-0.449-3.706-1.896-5.117c-0.25-0.221-0.549-0.574-0.949-0.706
			c-0.748-0.353-1.797-0.441-2.595-0.441h-6.988c-0.149,0-0.399,0.088-0.549,0.221v9.704c0,0.353,0.15,2.293,0.15,2.646v16.012
			c0,0.088,0.1,0.927,0.1,1.191C138.034,94.995,137.934,95.657,138.333,95.921 M122.412,94.157c0,0.529,0,1.809,1.048,1.809
			c0.849,0,3.444-0.353,3.694-0.706c0.848,0,0.349,0.75,2.495,0.573c0.2-0.044,0.499-0.132,0.499-0.088
			c0-0.088,0.399,0.132,0.649,0.221c0.699,0,1.298,0.088,1.897,0.088c1.048,0,0.798-2.603,0.798-2.912v-0.794l-0.299-0.088
			c-1.947,0-5.141-0.088-5.69-0.088c-0.499-0.132-0.499-0.838-0.499-1.059v-9.351c0-0.353,0.499-0.441,0.748-0.441
			c1.148,0,2.346,0.088,3.544,0.088c0.15-0.088,0.25-0.22,0.25-0.353v-2.999c0-0.309-0.35-0.309-0.649-0.309h-3.494
			c-0.599,0-0.549-4.146-0.549-5.602c0-0.661-0.2-2.161,0.3-3.352h5.639c0.15-0.088,0.2-0.309,0.3-0.353v-3.22l-0.3-0.221
			c-1.946-0.22-6.987-0.264-10.131-0.264l-0.25,0.132V94.157z M108.387,78.189c0-1.147-0.149-6.616-0.149-7.719
			c0-0.265-0.2-1.897,0.499-1.897c1.497,0,2.795,0.353,3.144,1.632c0,3.353-0.1,4.455-0.1,6.705c-0.399,1.147-1.547,1.5-2.745,1.5
			C108.737,78.41,108.487,78.41,108.387,78.189 M108.238,82.644c0-0.088-0.15-0.661-0.15-0.794c0-0.308,0.15-0.441,0.549-0.441
			c0.649,0,3.144,0.177,3.144,2.162c0,0.838,0.25,4.852,0.25,8.116c0,1.279-0.05,2.911,0.499,4.146h4.292
			c0.3,0,0.899,0.133,0.949-0.264c0-0.53-0.3-1.015-0.4-1.5c-0.399-1.5-0.399-4.499-0.399-7.719c0-0.089-0.25-3.132-0.25-3.22
			c-0.249-1.5-1.147-2.162-1.896-2.515c-0.649-0.353-0.948,0-0.948-0.705c0-0.265,1.297-0.971,1.697-1.412
			c1.297-1.367,1.397-4.764,1.397-6.352c0-2.514-0.25-5.381-2.845-6.925c-0.998-0.574-6.538-0.618-10.232-0.574
			c-0.698,0-0.948,0.133-0.848,0.927c0,5.381,0.1,19.188,0.1,29.818c0.05,0.265,0.399,0.353,0.698,0.353c0.2,0,0.35-0.044,0.5-0.044
			c0.249,0,2.595,0.132,2.844,0.132c-0.049-0.044,1.049,0.088,1.049-0.132V82.644z M88.922,75.896c0-0.927,0.1-5.117,0.1-6.044
			c0.15-0.794,1.098-1.279,1.996-1.279c0.15,0,0.649,0,0.949,0.133l0.748,0.661l0.15,0.265c0,0.088,0.25,0.794,0.25,0.926
			c0,2.338-0.15,13.057-0.15,15.395c0,0.441-0.1,3.043-0.1,3.617c0,1.146-0.15,2.426-1.697,2.426h-0.549
			c0,0-0.748-0.353-1.048-0.441c-0.249-0.133-0.549-0.486-0.549-0.706c0-0.133-0.1-0.927-0.1-1.147V75.896z M87.325,95.524
			c0.399,0.221,0.898,0.133,1.298,0.353c0.149,0,0.549,0.353,0.699,0.353h2.645c0.349,0,1.297-0.22,1.697-0.485
			c2.246-1.279,3.693-3.749,3.943-6.043c0.149-0.574,0.299-2.47,0.299-2.603c0-0.705,0.1-5.822,0.1-7.454v-8.072
			c-0.399-2.206-1.148-5.117-3.444-6.529c-0.649-0.441-1.847-0.441-2.495-0.573c-0.25,0-1.298-0.088-1.448-0.088l-0.499,0.088
			c-0.249,0-0.948,0.132-1.348,0.221c-1.746,0.617-2.894,2.117-3.443,3.661l-0.1,0.441c0,0.132-0.649,1.058-0.649,1.191
			c0,0-0.3,1.014-0.3,1.367c0,0.133-0.099,0.838-0.099,1.059c0,0.353-0.15,1.411-0.15,1.411v14.116c0,0.088,0.15,0.926,0.15,1.19
			c0.249,1.721,0.499,3.706,1.796,5.117c0,0,0.949,0.838,1.198,1.147L87.325,95.524z M67.261,67.647c-0.25,0-0.25-0.088-0.25-0.353
			c0-0.132,0.1-0.22,0.4-0.22c0.149,0,0.249,0,0.249,0.088C67.66,67.426,67.56,67.647,67.261,67.647 M65.514,95.304
			c-0.15,0.529,3.394,0.22,3.793,0.529c0.25-0.22,0.599-0.309,0.749-0.661c0-0.574,0.1-2.912,0.1-3.441
			c0-1.367,0.149-7.763,0.149-9.087c0-0.088,0.1-0.353,0.35-0.353H73.6c0.149,0,0.399,0.353,0.399,0.486v2.426
			c0,2.69-0.15,5.249-0.15,7.939v0.265c0,0.309,0.15,1.765,0.15,2.117c0,0,0.1,0.309,0.2,0.309h4.192l0.15-0.088
			c0,0,0.1-1.147,0.1-1.588v-0.75c0-0.485,0.149-2.514,0.149-2.955c0-2.426,0.1-14.204,0.1-16.63v-8.513l-0.249-0.22
			c0,0-2.496-0.089-3.494-0.089h-0.3c-0.099,0-0.499,0.089-0.499,0.221l-0.349,11.38l-0.15,1.456c0,0.22-0.249,0.309-0.349,0.309
			h-1.048c-0.499,0-1.348,0-1.897-0.089l-0.25-0.22c0-1.235-0.149-6.705-0.149-7.94v-4.896L69.906,65h-2.994l-0.15,0.089v0.441
			c0,0.088-0.499,0.441-0.499,0.441c-0.4,0.485-0.4,1.014-0.4,1.455c-0.099,2.912-0.349,16.409-0.349,19.365V95.304z M55.432,95.789
			c2.746-0.309,4.343-2.161,5.091-4.587c0-0.133,0.15-0.441,0.15-0.441v-4.632c0,0-0.399-1.015-0.549-1.323
			c-1.298-3.353-4.442-6.396-6.987-8.778c-1.348-1.368-1.697-2.559-1.697-4.235c0-1.544-0.2-3.043,1.896-3.043
			c1.048,0,1.248,0.397,1.498,1.323c0.099,1.323,0.099,2.735,0.099,4.058c0,0,0.1,0.353,0.25,0.353h3.893c0,0,0.15-0.132,0.15-0.265
			c0-0.088,0.1-0.353,0.1-0.441v-1.411c0-1.765,0.099-4.411-1.248-5.867c-0.1-0.088-0.799-0.75-1.098-0.97
			c-0.1-0.133-0.699-0.441-0.849-0.441c-0.948-0.353-1.896-0.353-2.994-0.353c-0.999,0-1.847,0.132-2.795,0.441
			c-1.598,0.661-2.796,2.117-3.295,3.661c0,0.088-0.099,0.662-0.099,0.75c-0.25,1.103-0.25,2.117-0.25,3.22
			c0,4.543,4.292,8.425,7.437,11.424c1.397,1.324,1.797,2.956,1.797,4.852c0,1.103-0.1,2.647-1.548,3h-0.249
			c-0.649,0-1.597-0.133-1.997-0.574l-0.599-0.749c0-0.221-0.099-1.236-0.099-1.456v-4.411l-0.15-0.088h-4.342l-0.1,0.088v3.308
			c0,0.221,0.1,1.456,0.1,1.765c0.249,2.117,0.499,4.322,2.894,5.205c0.749,0.22,1.598,0.617,2.296,0.617H55.432z M25.586,95.172
			l0.15,0.352l0.15,0.133h3.394c0.399,0,0.948-0.485,0.948-0.882c0-4.323,0-8.778,0.15-13.145l0.099-0.133h0.15
			c0.4,0,1.647,5.205,1.947,5.691l0.1,0.264c0.848,2.426,1.497,4.896,2.196,7.455c0,0.132,0.149,0.485,0.299,0.617
			c0.1,0.133,0.399,0.353,0.399,0.353h5.74l0.25-0.22c0,0,0.249-14.865,0.399-21.261c0-2.647,0.15-5.161,0.15-7.808v-1.102
			c-0.15-0.221-0.3-0.486-0.699-0.486h-3.793l-0.25,0.265v11.072c0,0.485-0.149,4.808-0.149,5.293v3.264
			c0,0.132-0.15,0.132-0.3,0.132c-0.25,0-0.399-0.264-0.399-0.485c0-0.132-0.15-0.617-0.15-0.75c0-0.22-0.25-1.191-0.399-1.411
			c-1.098-3.353-2.196-6.881-3.145-10.278l-1.247-4.543c-0.1-0.265-0.799-2.691-0.949-2.691c-1.497,0-2.545-0.088-4.043-0.088
			c-0.449,0-0.549,0.706-0.549,0.97c-0.149,9.131-0.149,18.438-0.449,27.569V95.172z M10.114,94.157c0,0.529,0,1.809,1.048,1.809
			c0.849,0,3.444-0.353,3.694-0.706c0.848,0,0.349,0.75,2.495,0.573c0.2-0.044,0.499-0.132,0.499-0.088
			c0-0.088,0.4,0.132,0.649,0.221c0.699,0,1.298,0.088,1.897,0.088c1.048,0,0.798-2.603,0.798-2.912v-0.794l-0.299-0.088
			c-1.947,0-5.141-0.088-5.69-0.088c-0.499-0.132-0.499-0.838-0.499-1.059v-9.351c0-0.353,0.499-0.441,0.748-0.441
			c1.148,0,2.346,0.088,3.544,0.088c0.15-0.088,0.25-0.22,0.25-0.353v-2.999c0-0.309-0.35-0.309-0.649-0.309h-3.494
			c-0.599,0-0.549-4.146-0.549-5.602c0-0.661-0.2-2.161,0.3-3.352h5.64c0.149-0.088,0.199-0.309,0.299-0.353v-3.22L20.496,65
			c-1.947-0.22-6.988-0.264-10.132-0.264l-0.25,0.132V94.157z"/>
	</g>
	<g>
		<path fill="#E83760" d="M80.438,48.587c-1.381,0-2.5-1.119-2.5-2.5V12.372c0-1.381,1.119-2.5,2.5-2.5s2.5,1.119,2.5,2.5v33.715
			C82.938,47.468,81.819,48.587,80.438,48.587z"/>
	</g>
	<g>
		<path fill="#FFFFFF" d="M48.247,104.916h2.759c1.639,0,2.658,0.93,2.658,2.339v0.02c0,1.569-1.26,2.389-2.799,2.389h-1.389v2.249
			h-1.229V104.916z M50.906,108.554c0.93,0,1.51-0.52,1.51-1.249v-0.021c0-0.819-0.59-1.249-1.51-1.249h-1.429v2.519H50.906z"/>
		<path fill="#FFFFFF" d="M55.618,108.434v-0.02c0-1.969,1.52-3.618,3.668-3.618s3.648,1.629,3.648,3.599v0.02
			c0,1.969-1.52,3.618-3.668,3.618C57.117,112.033,55.618,110.404,55.618,108.434z M61.644,108.434v-0.02
			c0-1.359-0.989-2.488-2.378-2.488c-1.39,0-2.359,1.109-2.359,2.469v0.02c0,1.359,0.99,2.479,2.379,2.479
			C60.675,110.893,61.644,109.793,61.644,108.434z"/>
		<path fill="#FFFFFF" d="M64.888,104.916h1.329l1.669,5.188l1.719-5.208h1.04l1.719,5.208l1.669-5.188h1.289l-2.429,7.046h-1.069
			l-1.719-5.027l-1.719,5.027h-1.06L64.888,104.916z"/>
		<path fill="#FFFFFF" d="M77.587,104.916h5.188v1.1h-3.958v1.818h3.508v1.1h-3.508v1.879h4.008v1.1h-5.237V104.916z"/>
		<path fill="#FFFFFF" d="M85.287,104.916h3.118c0.88,0,1.569,0.26,2.02,0.699c0.369,0.38,0.579,0.899,0.579,1.51v0.02
			c0,1.149-0.689,1.839-1.658,2.119l1.889,2.648h-1.459l-1.72-2.438h-1.539v2.438h-1.229V104.916z M88.316,108.384
			c0.88,0,1.439-0.46,1.439-1.169v-0.021c0-0.749-0.54-1.159-1.449-1.159h-1.789v2.349H88.316z"/>
		<path fill="#FFFFFF" d="M93.587,104.916h1.229v6.996h-1.229V104.916z"/>
		<path fill="#FFFFFF" d="M97.688,104.916h1.14l3.747,4.837v-4.837h1.21v6.996h-1.029l-3.858-4.978v4.978h-1.209V104.916z"/>
		<path fill="#FFFFFF" d="M106.278,108.434v-0.02c0-1.959,1.499-3.618,3.608-3.618c1.219,0,1.969,0.34,2.688,0.949l-0.78,0.93
			c-0.539-0.46-1.069-0.749-1.958-0.749c-1.29,0-2.27,1.129-2.27,2.469v0.02c0,1.439,0.95,2.499,2.379,2.499
			c0.66,0,1.26-0.21,1.689-0.53v-1.31h-1.789v-1.069h2.979v2.938c-0.69,0.59-1.68,1.09-2.919,1.09
			C107.717,112.033,106.278,110.473,106.278,108.434z"/>
		<path fill="#FFFFFF" d="M54.122,119.434v-0.02c0-1.959,1.499-3.618,3.608-3.618c1.219,0,1.969,0.34,2.688,0.949l-0.78,0.93
			c-0.539-0.46-1.069-0.749-1.958-0.749c-1.29,0-2.27,1.129-2.27,2.469v0.02c0,1.439,0.95,2.499,2.379,2.499
			c0.66,0,1.26-0.21,1.689-0.53v-1.31h-1.789v-1.069h2.979v2.938c-0.69,0.59-1.68,1.09-2.919,1.09
			C55.562,123.033,54.122,121.473,54.122,119.434z"/>
		<path fill="#FFFFFF" d="M63.272,115.916h3.118c0.88,0,1.569,0.26,2.02,0.699c0.369,0.38,0.579,0.899,0.579,1.51v0.02
			c0,1.149-0.689,1.839-1.658,2.119l1.889,2.648H67.76l-1.72-2.438h-1.539v2.438h-1.229V115.916z M66.3,119.384
			c0.88,0,1.439-0.46,1.439-1.169v-0.021c0-0.749-0.54-1.159-1.449-1.159h-1.789v2.349H66.3z"/>
		<path fill="#FFFFFF" d="M71.193,119.434v-0.02c0-1.969,1.519-3.618,3.668-3.618c2.148,0,3.647,1.629,3.647,3.599v0.02
			c0,1.969-1.519,3.618-3.668,3.618C72.692,123.033,71.193,121.404,71.193,119.434z M77.219,119.434v-0.02
			c0-1.359-0.989-2.488-2.379-2.488c-1.389,0-2.358,1.109-2.358,2.469v0.02c0,1.359,0.989,2.479,2.379,2.479
			C76.249,121.893,77.219,120.793,77.219,119.434z"/>
		<path fill="#FFFFFF" d="M80.462,115.916h1.329l1.67,5.188l1.719-5.208h1.039l1.72,5.208l1.669-5.188h1.289l-2.429,7.046h-1.069
			l-1.719-5.027l-1.72,5.027h-1.06L80.462,115.916z"/>
		<path fill="#FFFFFF" d="M94.881,117.056h-2.219v-1.14h5.677v1.14H96.12v5.856h-1.239V117.056z"/>
		<path fill="#FFFFFF" d="M100.642,115.916h1.229v2.908h3.338v-2.908h1.229v6.996h-1.229v-2.948h-3.338v2.948h-1.229V115.916z"/>
	</g>
</g>
</svg>
